<svg xmlns="http://www.w3.org/2000/svg" viewBox="0 0 512 512" fill="#FFD700">
  <path d="M480 288h-32v-45.66C461.21 219.8 472 193.9 472 168c0-53.02-42.98-96-96-96h-96v64h-32V72c0-22.06-17.94-40-40-40h-96c-22.06 0-40 17.94-40 40v56H48c-26.51 0-48 21.49-48 48v112c0 26.51 21.49 48 48 48h32l0 72c0 22.06 17.94 40 40 40h32c22.06 0 40-17.94 40-40v-72h192v72c0 22.06 17.94 40 40 40h32c22.06 0 40-17.94 40-40v-72h16c17.67 0 32-14.33 32-32v-32C544 302.3 529.7 288 512 288zM96 392c0 4.42-3.58 8-8 8h-32c-4.42 0-8-3.58-8-8v-72h48V392zM128 128V72c0-4.42 3.58-8 8-8h96c4.42 0 8 3.58 8 8v216h-112V128zM464 392c0 4.42-3.58 8-8 8h-32c-4.42 0-8-3.58-8-8v-72h48V392zM496 336h-480V176c0-8.84 7.16-16 16-16h96v152c0 13.25 10.75 24 24 24h208c13.25 0 24-10.75 24-24V168h96c8.84 0 16 7.16 16 16V336z"/>
  <path d="M376 176c-13.25 0-24 10.75-24 24v48c0 13.25 10.75 24 24 24s24-10.75 24-24v-48C400 186.7 389.3 176 376 176z" fill="#FFD700"/>
</svg>
